<svg xmlns="http://www.w3.org/2000/svg" xmlns:xlink="http://www.w3.org/1999/xlink" version="1.1" xml:space="preserve" width="100" height="100">

		<path fill="#fff" d="M40.1,60.4H15.9c-1.9,0-3.4,1.5-3.4,3.4c0,1.9,1.5,3.4,3.4,3.4h24.2c1.9,0,3.4-1.5,3.4-3.4    C43.5,61.9,42,60.4,40.1,60.4"/>
		<path fill="#fff" d="M55.5,49.1H20.6c-1.9,0-3.4,1.5-3.4,3.4c0,1.9,1.5,3.4,3.4,3.4h34.9c1.9,0,3.4-1.5,3.4-3.4    C58.9,50.6,57.4,49.1,55.5,49.1"/>
		<path fill="#fff" d="M62.6,37.8h-42c-1.9,0-3.4,1.5-3.4,3.4c0,1.9,1.5,3.4,3.4,3.4h42c1.9,0,3.4-1.5,3.4-3.4    C65.9,39.3,64.4,37.8,62.6,37.8"/>
		<path fill="#fff" d="M56.8,26.4H20.6c-1.9,0-3.4,1.5-3.4,3.4s1.5,3.4,3.4,3.4h36.2c1.9,0,3.4-1.5,3.4-3.4S58.7,26.4,56.8,26.4"/>
		<path fill="#fff" d="M25.9,15.1H15.9c-1.9,0-3.4,1.5-3.4,3.4c0,1.9,1.5,3.4,3.4,3.4h10.1c1.9,0,3.4-1.5,3.4-3.4    C29.3,16.6,27.8,15.1,25.9,15.1"/>
		<path fill="#fff" d="M13.6,0C6.1,0,0,6.1,0,13.6v55.5c0,7.5,6.1,13.6,13.6,13.6h65.6c1.9,0,3.5-1.6,3.5-3.5    c0-1.9-1.6-3.5-3.5-3.5H13.6C10,75.7,7,72.7,7,69.1V13.6C7,10,10,7,13.6,7h55.5c3.6,0,6.6,2.9,6.6,6.6v45c0,1.9,1.6,3.5,3.5,3.5    c1.9,0,3.5-1.6,3.5-3.5v-45C82.7,6.1,76.6,0,69.1,0H13.6z"/>
		<path fill="#fff" d="M82.9,79.3v12.2L66.1,75.7h13.2C81.3,75.7,82.9,77.3,82.9,79.3"/>

</svg>